{"title":"Pretty.Little.Teens.3.xXx.2014.DVDRiP-PiXDOC","uid":10683125,"size":1759381564,"categoryP":"porn","categoryS":"movie_clips","magnet":"?xt=urn:btih:35d661766649e860ee6b1eb7ffb8ced5e471db11&amp;dn=Pretty.Little.Teens.3.xXx.2014.DVDRiP-PiXDOC&amp;tr=udp%3A%2F%2Ftracker.openbittorrent.com%3A80&amp;tr=udp%3A%2F%2Fopen.demonii.com%3A1337&amp;tr=udp%3A%2F%2Ftracker.coppersurfer.tk%3A6969&amp;tr=udp%3A%2F%2Fexodus.desync.com%3A6969","seeders":1,"leechers":1,"uploader":"iH2OSO4","files":-1,"time":1407054820,"description":"General\nComplete name\nPretty.Little.Teens.3.xXx.2014.DVDRiP-PiXDOC.mp4\n\nSource :  &lt;a href=&quot; http://vasileturcu.ro/i/b256.html&quot; rel=&quot;nofollow&quot; target=&quot;_NEW&quot;&gt; http://vasileturcu.ro/i/b256.html&lt;/a&gt;\n\nFormat                           : MPEG-4\nFormat profile                   : Base Media\nCodec ID                         : isom\nFile size                        : 1.64 GiB\nDuration                         : 1h 54mn\nOverall bit rate                 : 2 051 Kbps\nEncoded date                     : UTC 2014-08-02 05:58:02\nTagged date                      : UTC 2014-08-02 05:58:02\n\nVideo\nID                               : 1\nFormat                           : MPEG-4 Visual\nFormat profile                   : Simple@L1\nFormat settings, BVOP            : No\nFormat settings, QPel            : No\nFormat settings, GMC             : No warppoints\nFormat settings, Matrix          : Default (H.263)\nCodec ID                         : 20\nDuration                         : 1h 54mn\nBit rate mode                    : Variable\nBit rate                         : 1 919 Kbps\nMaximum bit rate                 : 6 008 Kbps\nWidth                            : 712 pixels\nHeight                           : 400 pixels\nDisplay aspect ratio             : 16:9\nFrame rate mode                  : Constant\nFrame rate                       : 23.976 fps\nColor space                      : YUV\nChroma subsampling               : 4:2:0\nBit depth                        : 8 bits\nScan type                        : Progressive\nCompression mode                 : Lossy\nBits/(Pixel*Frame)               : 0.281\nStream size                      : 1.53 GiB (94%)\nWriting library                  : Lavc53.8.0\nEncoded date                     : UTC 2014-08-02 05:58:02\nTagged date                      : UTC 2014-08-02 06:00:27\n\nAudio\nID                               : 2\nFormat                           : AAC\nFormat/Info                      : Advanced Audio Codec\nFormat profile                   : LC\nCodec ID                         : 40\nDuration                         : 1h 54mn\nBit rate mode                    : Variable\nBit rate                         : 130 Kbps\nMaximum bit rate                 : 265 Kbps\nChannel(s)                       : 2 channels\nChannel positions                : Front: L R\nSampling rate                    : 44.1 KHz\nCompression mode                 : Lossy\nStream size                      : 106 MiB (6%)\nEncoded date                     : UTC 2014-08-02 05:59:49\nTagged date                      : UTC 2014-08-02 06:00:27\n","torrent":{"xt":"urn:btih:35d661766649e860ee6b1eb7ffb8ced5e471db11","amp;dn":"Pretty.Little.Teens.3.xXx.2014.DVDRiP-PiXDOC","amp;tr":["udp%3A%2F%2Ftracker.openbittorrent.com%3A80","udp%3A%2F%2Fopen.demonii.com%3A1337","udp%3A%2F%2Ftracker.coppersurfer.tk%3A6969","udp%3A%2F%2Fexodus.desync.com%3A6969"],"infoHash":"35d661766649e860ee6b1eb7ffb8ced5e471db11","infoHashBuffer":{"type":"Buffer","data":[53,214,97,118,102,73,232,96,238,107,30,183,255,184,206,213,228,113,219,17]},"announce":[],"urlList":[]}}